<?xml version="1.0" encoding="UTF-8" standalone="no"?>
<!DOCTYPE svg PUBLIC "-//W3C//DTD SVG 1.1//EN" "http://www.w3.org/Graphics/SVG/1.1/DTD/svg11.dtd">
<svg width="100%" height="100%" viewBox="0 0 237 237" version="1.1" xmlns="http://www.w3.org/2000/svg" xmlns:xlink="http://www.w3.org/1999/xlink" xml:space="preserve" xmlns:serif="http://www.serif.com/" style="fill-rule:evenodd;clip-rule:evenodd;stroke-linejoin:round;stroke-miterlimit:2;">
    <g transform="matrix(0.968778,0,0,1.11357,-0.0562265,-0.0206222)">
        <rect x="-1.801" y="0.182" width="244.528" height="236.14" style="fill:white;"/>
    </g>
    <g transform="matrix(7.00217,0,0,7.00217,118.11,118.11)">
        <g transform="matrix(1,0,0,1,-12,-12)">
            <path d="M3,17.962L3,16.962L12.558,16.962L12.558,17.962L3,17.962ZM3,13.173L3,12.173L7.462,12.173L7.462,13.173L3,13.173ZM3,8.385L3,7.385L7.462,7.385L7.462,8.385L3,8.385ZM20.292,18L16.404,14.169C16.042,14.44 15.65,14.649 15.226,14.797C14.802,14.945 14.368,15.019 13.923,15.019C12.8,15.019 11.844,14.631 11.052,13.855C10.261,13.079 9.865,12.13 9.865,11.01C9.865,9.889 10.261,8.941 11.054,8.164C11.846,7.388 12.804,7 13.928,7C15.052,7 16.008,7.388 16.797,8.164C17.586,8.941 17.981,9.886 17.981,11C17.981,11.445 17.907,11.879 17.759,12.303C17.611,12.727 17.395,13.113 17.112,13.462L21,17.292L20.292,18ZM13.923,14.019C14.772,14.019 15.494,13.728 16.089,13.144C16.684,12.561 16.981,11.849 16.981,11.01C16.981,10.17 16.684,9.458 16.089,8.875C15.494,8.292 14.772,8 13.923,8C13.074,8 12.352,8.292 11.757,8.875C11.163,9.458 10.865,10.17 10.865,11.01C10.865,11.849 11.163,12.561 11.757,13.144C12.352,13.728 13.074,14.019 13.923,14.019Z" style="fill:rgb(19,193,172);fill-rule:nonzero;"/>
        </g>
    </g>
</svg>
